<?xml version="1.0" standalone="no"?>
<!DOCTYPE svg PUBLIC "-//W3C//DTD SVG 20010904//EN"
 "http://www.w3.org/TR/2001/REC-SVG-20010904/DTD/svg10.dtd">
<svg version="1.0" xmlns="http://www.w3.org/2000/svg"
 width="1023.000000pt" height="394.000000pt" viewBox="0 0 1023.000000 394.000000"
 preserveAspectRatio="xMidYMid meet">

<g transform="translate(0.000000,394.000000) scale(0.100000,-0.100000)"
fill="#000000" stroke="none">
<path d="M2365 2789 c-4 -6 -5 -13 -2 -15 7 -7 -34 -49 -57 -57 -11 -4 -16
-13 -12 -22 9 -25 -54 -71 -119 -85 -26 -5 -30 -10 -27 -36 2 -16 8 -33 13
-38 15 -17 10 -79 -15 -176 -37 -142 -59 -147 -100 -20 -32 99 -58 138 -136
206 -112 99 -279 154 -464 154 -49 0 -176 5 -282 11 -178 10 -196 10 -220 -6
-15 -9 -29 -26 -31 -36 -3 -10 -14 -19 -24 -19 -26 0 -25 -40 1 -47 11 -3 20
-9 20 -14 0 -5 18 -29 40 -53 22 -24 40 -48 40 -55 0 -6 8 -11 19 -11 15 0 19
-10 25 -52 9 -81 7 -166 -5 -173 -5 -4 -101 -8 -212 -8 -186 -2 -206 -4 -247
-24 -32 -15 -69 -23 -125 -26 -71 -3 -80 -5 -80 -23 0 -17 9 -19 89 -22 68 -2
94 -8 115 -23 38 -27 157 -40 321 -32 l139 6 8 -24 c4 -13 7 -77 5 -141 -3
-118 -3 -118 -28 -118 -13 0 -24 -4 -24 -9 0 -5 -13 -23 -30 -39 -26 -26 -30
-38 -30 -82 0 -42 5 -55 26 -75 37 -34 81 -38 372 -32 274 5 325 13 424 63
l47 24 22 -29 c35 -48 69 -56 213 -54 157 2 167 4 189 42 22 38 22 68 -4 115
-22 42 -20 69 12 143 l18 43 66 0 66 0 20 -47 c22 -51 26 -99 14 -174 -5 -30
-3 -54 5 -68 24 -46 54 -50 419 -52 320 -1 343 0 363 17 46 42 43 110 -10 166
-21 23 -26 39 -29 105 -5 91 -8 93 85 -52 99 -153 183 -211 340 -235 49 -8 80
-8 113 0 24 7 51 11 59 10 75 -6 347 -10 365 -6 63 16 82 85 45 162 -16 33
-20 58 -18 110 l3 69 67 -85 c56 -70 70 -94 79 -141 12 -61 35 -94 76 -110 13
-5 105 -9 204 -9 187 0 239 10 239 45 0 8 5 15 10 15 6 0 10 6 10 13 0 23 -54
78 -124 125 -121 81 -144 126 -121 235 11 53 -11 119 -38 115 -24 -4 -32 -18
-49 -82 l-13 -50 -43 41 c-29 27 -42 48 -42 66 0 26 2 27 56 27 54 0 94 12 94
29 0 14 -82 59 -123 66 -20 4 -37 12 -37 19 0 6 36 50 79 97 59 64 97 94 146
120 81 41 105 71 105 131 0 35 -6 50 -26 69 -24 23 -33 24 -163 27 -190 5
-223 -11 -246 -117 -7 -32 -104 -171 -140 -201 -13 -11 -15 -8 -15 24 0 43 20
95 43 115 9 7 22 31 27 52 15 56 -15 114 -67 128 -51 15 -298 12 -348 -2 -84
-26 -93 -106 -20 -177 l35 -34 0 -125 c0 -175 2 -170 -73 -164 -35 3 -81 15
-106 28 l-44 22 -1 104 c-1 92 -4 110 -28 155 -15 28 -53 75 -86 106 -92 84
-130 93 -422 93 -204 0 -239 -3 -267 -18 -74 -39 -72 -113 3 -184 33 -31 34
-34 34 -112 0 -45 -4 -81 -9 -81 -5 0 -12 -11 -15 -24 -6 -26 -71 -50 -122
-44 -33 4 -31 -1 -125 268 -52 149 -90 227 -119 250 -4 3 -12 15 -19 28 -12
23 -35 29 -46 11z m77 -194 c14 -33 47 -125 73 -205 59 -182 72 -210 96 -210
22 0 26 -18 5 -26 -16 -6 -6 -54 47 -214 42 -129 58 -160 97 -194 43 -36 73
-34 102 7 21 30 23 43 26 203 5 206 7 201 -104 203 -43 1 -80 3 -82 6 -3 3 20
5 51 5 39 0 57 4 58 13 0 9 2 9 6 0 5 -15 54 -6 65 11 11 16 10 260 -1 288 -5
13 -18 32 -30 43 -90 87 -90 87 -38 92 225 23 513 9 573 -28 45 -27 93 -84
116 -137 26 -58 22 -168 -9 -228 l-20 -42 36 -6 c20 -3 63 -7 96 -7 39 -1 19
-5 -54 -9 -108 -7 -116 -9 -138 -34 -13 -15 -23 -34 -23 -43 0 -19 60 -124
131 -228 52 -77 137 -164 184 -188 30 -16 30 -16 -40 -16 -87 0 -182 20 -227
47 -43 27 -188 210 -188 237 0 9 -57 90 -76 109 -21 22 -61 20 -74 -3 -15 -30
-13 -225 4 -265 7 -18 28 -47 45 -65 59 -61 65 -59 -301 -60 -183 0 -345 3
-360 5 -32 6 -35 20 -10 47 42 46 -8 239 -72 278 -45 28 -149 26 -191 -2 -65
-45 -115 -269 -61 -269 11 0 36 -40 36 -55 0 -3 -74 -5 -165 -5 -91 0 -165 4
-165 9 0 18 42 61 60 61 22 0 72 56 101 112 28 54 117 291 119 314 0 8 -58 13
-88 8 l-38 -6 -11 -73 c-24 -149 -133 -295 -272 -364 -115 -58 -176 -66 -483
-66 -146 0 -269 2 -272 6 -3 3 2 22 12 42 12 26 23 36 40 37 13 0 37 13 53 29
l29 29 0 169 c0 92 -5 175 -10 183 -8 13 -54 16 -277 20 l-268 5 267 5 c146 3
270 9 274 13 11 11 18 186 9 252 -6 51 -13 63 -62 116 -32 33 -70 63 -87 68
-23 7 -25 9 -10 10 12 1 27 7 33 15 12 14 40 14 111 2 19 -4 141 -11 270 -16
262 -10 343 -25 437 -83 56 -35 153 -122 153 -138 0 -6 8 -29 19 -52 10 -23
24 -72 31 -108 13 -64 15 -67 46 -72 17 -3 50 -3 72 0 38 5 42 9 61 57 29 74
53 171 60 249 7 65 6 67 -16 67 -12 0 -24 3 -26 8 -3 4 17 7 44 7 53 0 68 11
70 55 2 22 2 22 6 4 4 -19 7 -20 28 -10 28 13 55 55 56 88 1 16 3 13 9 -12 4
-19 18 -62 32 -95z m1713 24 c8 -9 -19 -69 -31 -69 -7 0 -22 -19 -33 -43 -16
-34 -21 -63 -21 -131 0 -48 5 -96 10 -107 26 -47 84 -6 197 142 69 90 96 145
89 180 l-5 29 164 0 c91 0 165 -4 165 -8 0 -16 -66 -69 -112 -91 -68 -32 -90
-52 -195 -174 -95 -112 -117 -152 -92 -168 8 -5 59 -10 114 -11 l100 -1 -102
-6 c-56 -3 -104 -9 -107 -12 -10 -10 87 -131 239 -298 86 -94 151 -147 223
-179 36 -17 34 -17 -153 -20 -104 -2 -205 0 -223 3 -32 6 -33 7 -18 24 15 16
15 22 1 62 -23 64 -224 319 -251 319 -26 -1 -34 -22 -40 -101 -9 -121 1 -188
38 -244 17 -25 27 -49 23 -53 -10 -11 -286 -15 -324 -5 l-34 9 35 36 c65 64
68 78 68 272 0 156 -2 176 -17 185 -17 9 -17 10 0 16 15 6 17 23 17 151 0 128
-2 150 -21 187 -12 23 -28 46 -35 50 -8 5 -24 18 -35 30 l-20 22 58 6 c66 7
320 5 328 -2z m-3148 -81 c-3 -7 -5 -2 -5 12 0 14 2 19 5 13 2 -7 2 -19 0 -25z
m1676 -375 c-7 -2 -21 -2 -30 0 -10 3 -4 5 12 5 17 0 24 -2 18 -5z m1119 -33
c4 -8 7 -88 7 -176 l1 -162 -35 -31 c-40 -35 -45 -34 -112 23 -41 35 -131 163
-172 244 -24 47 -28 43 64 62 33 6 71 19 85 28 49 31 150 38 162 12z m-1014
-30 c6 -52 13 -70 27 -70 8 0 15 5 15 10 0 6 5 10 10 10 14 0 13 -199 -1 -239
-14 -39 -51 -43 -75 -7 -26 41 -83 220 -73 232 5 6 10 30 12 53 l2 42 40 -3
c34 -3 40 -7 43 -28z m1763 -41 l-10 -24 0 26 c-1 14 2 29 6 33 12 12 14 -9 4
-35z m-14 -66 c-3 -10 -5 -4 -5 12 0 17 2 24 5 18 2 -7 2 -21 0 -30z m8 -63
c3 -5 1 -10 -4 -10 -6 0 -11 5 -11 10 0 6 2 10 4 10 3 0 8 -4 11 -10z"/>
<path d="M1381 2529 c-18 -4 -45 -19 -59 -33 -22 -22 -28 -39 -34 -103 -4 -43
-4 -109 -1 -148 2 -38 6 -152 6 -253 l2 -184 38 -35 c38 -34 40 -35 107 -30
38 2 99 15 135 28 132 46 193 132 202 287 l5 89 -32 7 c-18 3 -51 7 -74 7 -35
1 -31 3 24 11 35 5 66 11 68 13 2 2 -3 38 -13 79 -21 95 -74 178 -142 222 -66
43 -155 60 -232 43z m162 -85 c31 -10 59 -30 82 -56 39 -46 71 -119 62 -143
-8 -18 -57 -20 -103 -3 -27 10 -34 18 -39 50 -11 64 -41 62 -54 -4 -7 -34 -39
-56 -103 -72 l-28 -6 0 114 c0 99 2 116 18 125 26 16 113 13 165 -5z m45 -275
l47 -2 -55 -6 c-30 -3 -93 -4 -140 -1 l-85 5 80 5 c44 4 86 5 93 3 8 -2 35 -4
60 -4z m-143 -73 c31 -11 41 -21 48 -45 10 -41 43 -43 52 -2 5 25 12 30 53 38
72 14 106 4 110 -31 5 -40 -15 -114 -39 -148 -45 -63 -236 -122 -289 -88 -14
8 -16 36 -11 130 0 8 -2 36 -5 63 -8 61 1 97 24 97 9 0 35 -7 57 -14z"/>
<path d="M3106 2498 c-13 -18 -16 -51 -16 -149 0 -126 0 -128 26 -148 33 -26
57 -26 110 -2 151 69 103 321 -62 321 -33 0 -46 -5 -58 -22z m116 -75 c21 -25
29 -75 18 -114 -11 -37 -25 -49 -57 -49 -22 0 -23 3 -23 90 0 88 1 90 23 90
13 0 31 -8 39 -17z"/>
<path d="M2277 2223 c-18 -46 -6 -58 48 -47 31 5 35 9 29 28 -9 31 -23 54 -24
39 0 -18 -20 -16 -20 2 0 28 -18 15 -33 -22z"/>
<path d="M2270 2130 c17 -32 90 -22 90 12 0 13 -28 9 -34 -4 -5 -10 -7 -10
-12 0 -3 6 -17 12 -30 12 -22 0 -23 -3 -14 -20z"/>
<path d="M5380 2706 c-162 -36 -265 -160 -271 -328 -2 -52 34 -175 68 -230 23
-38 101 -96 183 -138 97 -49 140 -101 140 -169 0 -41 -36 -57 -83 -37 -41 17
-107 89 -137 150 -14 26 -38 60 -55 75 -17 15 -34 35 -38 44 -19 49 -68 -27
-111 -174 -40 -135 -39 -142 48 -231 92 -95 114 -103 291 -103 121 0 134 2
188 27 72 34 157 119 189 189 l23 51 33 -50 c39 -61 108 -123 166 -151 57 -28
187 -61 267 -68 127 -11 274 33 381 115 54 40 132 137 155 190 7 17 15 32 17
32 3 0 12 -23 21 -50 68 -206 288 -329 512 -287 104 20 157 45 221 102 91 82
122 156 142 335 11 97 24 115 78 106 58 -9 62 -17 62 -141 0 -148 -4 -168 -42
-184 -69 -31 -88 -118 -37 -167 l30 -29 367 -3 c395 -3 407 -2 443 49 l20 29
37 -30 c80 -64 228 -91 355 -65 100 20 147 44 207 104 34 34 53 64 68 111 26
75 27 125 7 203 -25 95 -24 97 40 97 60 0 243 33 273 49 11 6 41 13 66 15 54
5 67 12 60 31 -4 8 -27 15 -67 18 -34 3 -99 14 -144 25 -60 14 -121 20 -220
21 -76 1 -153 7 -172 13 -70 22 -181 90 -196 119 -20 38 -20 39 20 39 32 0 35
3 35 29 0 16 -6 32 -12 35 -7 3 0 3 17 0 39 -7 50 -17 81 -73 48 -90 123 -104
184 -35 74 85 67 174 -19 258 -61 60 -120 74 -276 68 -142 -5 -157 -10 -242
-73 -38 -29 -60 -55 -83 -103 -30 -61 -32 -70 -27 -148 2 -46 8 -92 12 -104 6
-18 -1 -23 -57 -43 -93 -34 -158 -38 -211 -12 -31 15 -63 21 -114 21 -55 0
-72 3 -77 16 -3 9 -6 57 -6 109 l0 93 45 36 c49 41 67 83 53 131 -16 60 4 58
-454 49 l-419 -9 -9 -26 c-14 -41 2 -80 52 -126 l46 -42 4 -85 c2 -47 1 -101
-2 -120 -8 -42 -22 -45 -113 -21 -42 12 -80 14 -141 9 -114 -9 -116 -7 -107
121 l6 100 39 36 c47 43 61 96 36 134 l-17 26 -232 -3 -232 -3 -9 -26 c-14
-39 1 -78 44 -118 30 -29 40 -46 45 -83 4 -27 5 -48 2 -48 -3 0 -16 19 -30 43
-41 69 -162 183 -231 217 -144 70 -321 85 -454 37 -110 -39 -174 -81 -245
-157 l-63 -68 0 46 c-1 56 -30 119 -74 155 -33 29 -81 44 -175 58 -77 11 -107
10 -175 -5z m260 -83 c48 -16 58 -23 76 -61 11 -23 23 -39 27 -36 14 14 7 -13
-21 -76 -41 -98 -41 -98 -66 -43 -33 69 -70 109 -121 129 -42 16 -48 16 -87 0
-56 -22 -80 -55 -80 -112 0 -79 50 -136 182 -207 53 -29 79 -37 145 -42 44 -3
85 -2 91 2 5 4 20 47 31 95 27 111 43 143 103 210 76 85 240 158 358 158 63 0
189 -28 250 -56 72 -32 195 -151 226 -218 12 -28 31 -81 41 -118 l17 -68 38 0
c38 0 39 0 46 47 4 25 4 93 0 150 -7 108 -26 169 -56 178 -9 3 -29 19 -45 35
l-29 30 166 0 c254 0 300 -11 215 -53 -63 -31 -72 -61 -72 -229 0 -80 4 -150
8 -155 5 -4 92 -9 195 -11 102 -1 188 -5 191 -7 2 -3 -29 -5 -70 -5 -179 -1
-308 -5 -312 -10 -2 -3 -7 -25 -11 -50 -7 -42 -6 -44 9 -25 16 19 16 19 9 -5
-12 -39 -7 -139 7 -156 7 -8 13 -27 14 -41 0 -14 8 -31 18 -38 9 -7 17 -16 17
-21 0 -14 64 -54 112 -71 89 -30 204 17 260 107 30 49 58 194 50 262 -4 34 -7
38 -46 47 -28 6 -33 9 -16 10 14 1 36 4 48 8 24 6 24 6 20 152 -3 136 -5 148
-28 183 -14 20 -34 39 -45 42 -12 3 -31 19 -43 36 l-23 30 176 0 c174 0 176 0
162 -20 -7 -11 -29 -30 -48 -43 -49 -33 -62 -79 -67 -238 -4 -153 -7 -147 78
-150 42 -1 32 -5 -31 -14 l-46 -6 -2 -82 c-3 -108 -22 -212 -49 -263 -24 -47
-87 -105 -138 -128 -19 -9 -50 -23 -70 -32 -49 -23 -230 -14 -295 15 -71 32
-134 94 -170 167 -29 59 -33 77 -39 190 -4 68 -9 126 -11 128 -2 2 -20 6 -39
8 l-35 3 -7 -60 c-14 -129 -78 -257 -167 -338 -22 -20 -78 -55 -123 -78 -80
-39 -87 -41 -183 -42 -140 -1 -270 31 -342 86 -29 22 -53 43 -53 48 0 4 -9 11
-20 14 -11 3 -20 12 -20 18 0 7 -18 53 -39 102 -22 50 -44 124 -51 167 -10 59
-17 79 -31 83 -20 7 -110 2 -106 -5 1 -3 17 -34 35 -70 38 -75 51 -171 33
-237 -13 -48 -96 -145 -145 -170 -17 -9 -34 -20 -37 -26 -10 -15 -175 -20
-259 -9 -63 9 -79 15 -99 39 -74 89 -91 106 -91 95 0 -7 -4 -10 -10 -7 -6 4
-4 14 4 28 34 52 68 158 64 197 -4 49 7 53 16 6 9 -47 94 -174 146 -219 58
-49 107 -64 160 -48 97 29 106 156 19 255 -21 23 -75 63 -123 90 -47 26 -90
54 -96 61 -6 8 -25 17 -42 20 -19 5 -27 10 -20 17 6 6 1 26 -13 57 -49 102
-52 174 -11 272 24 57 105 120 181 140 46 13 194 2 255 -18z m3501 -3 c48 -15
74 -28 86 -46 10 -14 26 -35 36 -45 11 -12 16 -28 12 -40 -4 -10 -2 -19 3 -19
6 0 13 -8 16 -17 6 -15 4 -15 -13 1 -20 18 -21 18 -29 0 -4 -11 -18 -37 -32
-58 l-24 -40 -8 30 c-4 16 -20 44 -35 62 -16 18 -36 44 -47 58 -25 35 -80 57
-123 49 -39 -7 -97 -61 -107 -99 -10 -42 12 -105 52 -146 20 -21 77 -59 125
-84 l89 -47 241 -5 c133 -3 243 -7 246 -9 2 -3 -84 -5 -191 -5 -108 0 -209 -3
-226 -6 l-31 -6 19 -27 c27 -36 61 -136 67 -198 8 -70 -14 -136 -61 -190 -79
-90 -190 -119 -356 -92 -36 6 -71 11 -78 11 -15 2 -123 121 -150 166 -11 19
-10 22 7 22 14 0 28 17 48 59 15 33 31 60 35 60 4 1 16 -19 27 -44 63 -142
185 -231 270 -195 38 15 80 60 89 96 22 79 -45 184 -152 238 -30 15 -75 44
-100 63 -42 33 -48 34 -162 42 -98 7 -106 8 -48 10 39 0 85 4 102 7 29 6 30 8
17 28 -7 11 -23 50 -35 85 -33 98 -20 176 40 245 88 100 227 131 381 86z
m-907 -28 c-9 -16 -25 -39 -35 -53 -16 -20 -19 -21 -19 -6 0 30 -22 14 -48
-34 -18 -35 -22 -52 -17 -84 4 -22 7 -84 8 -137 0 -54 4 -99 9 -99 4 -1 13 -3
18 -4 6 -1 31 -4 58 -5 40 -3 42 -4 12 -7 -19 -2 -50 -6 -67 -9 l-33 -5 0
-151 c0 -246 14 -268 172 -268 136 0 180 26 224 134 17 41 34 60 34 37 0 -4
15 -28 33 -51 l33 -43 -19 -61 c-10 -34 -22 -68 -26 -76 -7 -13 -61 -15 -372
-18 -200 -1 -369 0 -375 2 -20 8 -4 56 18 56 11 0 35 15 53 33 25 25 34 44 38
82 9 70 6 301 -4 316 -4 7 -38 15 -76 19 -47 5 -56 8 -28 9 22 1 57 4 79 8
l39 6 -5 151 c-5 175 -13 197 -82 241 -25 16 -46 33 -46 37 0 4 99 8 221 8
l220 0 -17 -28z m-383 -108 c8 -9 14 -55 17 -122 5 -124 1 -131 -73 -140 -41
-4 -45 -2 -55 22 -6 16 -7 65 -4 119 5 73 11 97 27 115 24 26 69 29 88 6z
m-2325 -20 c12 -3 36 -32 58 -70 20 -35 41 -64 47 -64 5 0 14 -11 19 -25 10
-27 24 -32 37 -12 4 6 23 23 42 36 l34 24 -8 -39 c-11 -58 -22 -74 -55 -74
-66 0 -220 82 -245 131 -36 69 -3 113 71 93z m2834 -294 c0 -5 -18 -10 -40
-10 -22 0 -40 5 -40 10 0 6 18 10 40 10 22 0 40 -4 40 -10z m77 -6 c-3 -3 -12
-4 -19 -1 -8 3 -5 6 6 6 11 1 17 -2 13 -5z m90 0 c-3 -3 -12 -4 -19 -1 -8 3
-5 6 6 6 11 1 17 -2 13 -5z m42 -51 c19 -9 74 -21 121 -28 54 -7 100 -20 121
-33 19 -11 65 -38 102 -58 75 -41 117 -90 117 -138 0 -60 -57 -84 -121 -51
-28 15 -89 88 -89 107 0 19 -42 69 -71 84 -38 19 -90 5 -118 -34 -18 -25 -21
-26 -55 -14 -53 19 -104 -10 -136 -77 -19 -42 -30 -53 -59 -61 -44 -12 -151
-13 -169 -1 -9 6 -15 44 -19 124 -8 149 1 167 80 167 28 0 70 5 92 11 108 28
145 29 204 2z m-1123 -41 c51 -41 58 -95 22 -170 -29 -61 -79 -92 -147 -92
-101 0 -152 57 -166 185 -6 47 -4 64 7 73 9 7 60 13 129 15 63 1 119 4 124 5
6 1 20 -6 31 -16z"/>
<path d="M6235 2556 c-45 -12 -135 -94 -136 -123 0 -16 -1 -16 -8 1 -19 49
-87 -169 -73 -235 2 -10 17 -19 40 -23 48 -8 480 -8 510 0 43 12 28 99 -36
208 -84 143 -187 203 -297 172z m128 -90 c40 -17 66 -45 111 -120 38 -63 45
-96 22 -96 -9 0 -12 8 -9 24 3 13 0 27 -6 30 -9 6 -24 -6 -59 -48 -11 -13 -39
-16 -168 -16 -176 0 -178 1 -150 75 51 132 158 194 259 151z"/>
<path d="M6043 2153 c-27 -5 -30 -22 -21 -100 8 -67 72 -214 91 -210 6 1 13
-7 15 -18 12 -57 83 -96 176 -96 63 -1 90 9 130 44 11 9 27 16 35 15 22 -4 77
83 102 160 20 64 29 186 14 200 -7 8 -508 12 -542 5z m96 -100 c-13 -16 -25
-30 -26 -31 -1 -2 -6 6 -13 17 -15 29 -5 41 32 41 l31 0 -24 -27z m275 12 c3
-8 12 -15 21 -15 9 0 18 7 21 15 4 9 19 15 36 15 30 0 31 0 26 -47 -8 -75 -48
-162 -89 -195 -70 -56 -213 -48 -244 13 -15 27 -14 29 3 29 47 0 80 -13 91
-36 10 -23 35 -32 44 -16 3 4 2 27 -2 52 l-6 45 -65 1 c-36 1 -72 -3 -81 -7
-39 -20 -29 64 13 108 11 12 18 29 15 37 -6 14 8 16 102 16 88 0 110 -3 115
-15z m-294 -187 c0 -18 -2 -20 -9 -8 -6 8 -7 18 -5 22 9 14 14 9 14 -14z"/>
<path d="M4673 2324 c-40 -20 -73 -71 -73 -113 0 -25 4 -32 18 -30 46 4 82 -2
82 -15 0 -9 22 -15 73 -21 64 -7 97 -8 175 -6 27 1 32 39 5 41 -10 1 -62 4
-116 6 l-98 5 31 37 c17 20 38 45 47 54 22 23 11 44 -27 52 -51 10 -82 7 -117
-10z m77 -35 c-24 -11 -60 -32 -78 -46 -18 -14 -36 -23 -38 -20 -8 8 63 58
103 73 56 20 64 15 13 -7z"/>
<path d="M4894 1669 c-3 -6 -2 -15 3 -20 12 -12 63 5 63 21 0 13 -57 13 -66
-1z"/>
</g>
</svg>
